<svg width="165" height="30" viewBox="0 0 165 30" fill="none" xmlns="http://www.w3.org/2000/svg">
<circle cx="15" cy="15" r="15" fill="#29253D"/>
<path d="M18.0037 15.75L18.3369 13.5783H16.2546V12.1692C16.2403 12.007 16.2626 11.8438 16.3199 11.6914C16.3772 11.5391 16.4679 11.4015 16.5854 11.2889C16.7029 11.1763 16.8441 11.0915 16.9988 11.0408C17.1534 10.9901 17.3174 10.9747 17.4788 10.9958H18.4263V9.14828C17.8705 9.05797 17.3089 9.00841 16.7459 9C15.0293 9 13.9078 10.0379 13.9078 11.923V13.5783H12V15.75H13.9078V21H16.2555V15.75H18.0037Z" fill="white"/>
<circle cx="60" cy="15" r="15" fill="#29253D"/>
<path fill-rule="evenodd" clip-rule="evenodd" d="M57.6044 20.9995H62.3955C63.3511 20.9984 64.2674 20.6184 64.9431 19.9426C65.6188 19.2669 65.9989 18.3507 66 17.395V12.604C65.9988 11.6484 65.6186 10.7323 64.9429 10.0567C64.2672 9.38108 63.3511 9.00105 62.3955 9H57.6044C56.6489 9.00105 55.7328 9.38108 55.0571 10.0567C54.3814 10.7323 54.0012 11.6484 54 12.604V17.395C54.0011 18.3507 54.3812 19.2669 55.0569 19.9426C55.7326 20.6184 56.6488 20.9984 57.6044 20.9995ZM55.8554 10.8555C56.3195 10.3915 56.9487 10.1305 57.605 10.1299H62.396C63.0523 10.1305 63.6815 10.3915 64.1456 10.8555C64.6097 11.3195 64.8708 11.9487 64.8716 12.605V17.396C64.8709 18.0524 64.6099 18.6817 64.1458 19.1458C63.6817 19.6099 63.0524 19.871 62.396 19.8716H57.605C56.9486 19.871 56.3193 19.6099 55.8552 19.1458C55.3911 18.6817 55.13 18.0524 55.1294 17.396V12.605C55.1302 11.9487 55.3913 11.3195 55.8554 10.8555ZM63.1777 11.1427C63.0385 11.1426 62.9024 11.1838 62.7866 11.2611C62.6708 11.3383 62.5805 11.4482 62.5272 11.5768C62.4739 11.7053 62.4598 11.8468 62.4869 11.9834C62.514 12.1199 62.581 12.2453 62.6794 12.3438C62.7778 12.4423 62.9032 12.5093 63.0397 12.5365C63.1762 12.5637 63.3177 12.5498 63.4463 12.4966C63.575 12.4433 63.6849 12.3531 63.7623 12.2374C63.8396 12.1217 63.8809 11.9856 63.8809 11.8464C63.8809 11.754 63.8628 11.6625 63.8275 11.5771C63.7921 11.4918 63.7404 11.4142 63.6751 11.3488C63.6098 11.2835 63.5322 11.2316 63.4469 11.1963C63.3615 11.1609 63.27 11.1427 63.1777 11.1427ZM60.0504 12.0449C59.466 12.045 58.8948 12.2184 58.4089 12.5431C57.9231 12.8679 57.5444 13.3294 57.3208 13.8693C57.0972 14.4093 57.0387 15.0034 57.1528 15.5765C57.2668 16.1497 57.5482 16.6762 57.9614 17.0894C58.3747 17.5026 58.9012 17.7841 59.4743 17.8981C60.0475 18.0121 60.6416 17.9537 61.1815 17.7301C61.7215 17.5065 62.183 17.1278 62.5077 16.6419C62.8325 16.1561 63.0058 15.5848 63.0059 15.0004C63.0051 14.2168 62.6935 13.4655 62.1394 12.9114C61.5853 12.3573 60.834 12.0457 60.0504 12.0449ZM60.0504 16.8932C59.6761 16.8932 59.3102 16.7821 58.9989 16.5742C58.6876 16.3662 58.4451 16.0706 58.3018 15.7247C58.1585 15.3789 58.121 14.9983 58.194 14.6312C58.2671 14.264 58.4473 13.9267 58.7121 13.662C58.9768 13.3973 59.314 13.2171 59.6812 13.144C60.0483 13.071 60.4289 13.1085 60.7748 13.2517C61.1206 13.395 61.4162 13.6376 61.6242 13.9489C61.8322 14.2601 61.9432 14.6261 61.9432 15.0004C61.9427 15.5022 61.7431 15.9834 61.3882 16.3382C61.0334 16.693 60.5523 16.8926 60.0504 16.8932Z" fill="white"/>
<circle cx="105" cy="15" r="15" fill="#29253D"/>
<path fill-rule="evenodd" clip-rule="evenodd" d="M111 21L106.307 14.0062L106.315 14.0127L110.546 9H109.133L105.686 13.08L102.948 9H99.2401L103.621 15.5296L103.621 15.5291L99 21H100.414L104.246 16.4607L107.292 21H111ZM102.388 10.0909L108.972 19.9091H107.852L101.262 10.0909H102.388Z" fill="white"/>
<circle cx="150" cy="15" r="15" fill="#29253D"/>
<path d="M156 13.4333C156 13.0875 155.932 12.745 155.8 12.4255C155.667 12.106 155.473 11.8157 155.229 11.5712C154.984 11.3267 154.694 11.1327 154.374 11.0004C154.055 10.868 153.712 10.7999 153.367 10.7999H146.633C145.935 10.7999 145.265 11.0774 144.771 11.5712C144.277 12.0651 144 12.7349 144 13.4333V16.567C144 17.2654 144.277 17.9352 144.771 18.429C145.265 18.9229 145.935 19.2003 146.633 19.2003H153.367C153.712 19.2003 154.055 19.1322 154.374 18.9999C154.694 18.8675 154.984 18.6736 155.229 18.429C155.473 18.1845 155.667 17.8942 155.8 17.5747C155.932 17.2552 156 16.9128 156 16.567V13.4333ZM152.041 15.2348L149.021 16.7285C148.903 16.7923 148.5 16.707 148.5 16.5721V13.5056C148.5 13.3695 148.906 13.2836 149.024 13.3514L151.914 14.9236C152.034 14.9931 152.163 15.1681 152.041 15.2348Z" fill="white"/>
</svg>
