<svg width="30" height="30" viewBox="0 0 31 31" fill="none" xmlns="http://www.w3.org/2000/svg">
<circle cx="15" cy="15" r="15" fill="#29253D"/>
<path transform="translate(-135)" d="M156 13.4333C156 13.0875 155.932 12.745 155.8 12.4255C155.667 12.106 155.473 11.8157 155.229 11.5712C154.984 11.3267 154.694 11.1327 154.374 11.0004C154.055 10.868 153.712 10.7999 153.367 10.7999H146.633C145.935 10.7999 145.265 11.0774 144.771 11.5712C144.277 12.0651 144 12.7349 144 13.4333V16.567C144 17.2654 144.277 17.9352 144.771 18.429C145.265 18.9229 145.935 19.2003 146.633 19.2003H153.367C153.712 19.2003 154.055 19.1322 154.374 18.9999C154.694 18.8675 154.984 18.6736 155.229 18.429C155.473 18.1845 155.667 17.8942 155.8 17.5747C155.932 17.2552 156 16.9128 156 16.567V13.4333ZM152.041 15.2348L149.021 16.7285C148.903 16.7923 148.5 16.707 148.5 16.5721V13.5056C148.5 13.3695 148.906 13.2836 149.024 13.3514L151.914 14.9236C152.034 14.9931 152.163 15.1681 152.041 15.2348Z" fill="white"/>
</svg>